<mxfile host="app.diagrams.net" agent="Mozilla/5.0 (Windows NT 10.0; Win64; x64) AppleWebKit/537.36 (KHTML, like Gecko) Chrome/132.0.0.0 Safari/537.36 OPR/117.0.0.0" version="26.1.1">
  <diagram name="Страница — 1" id="i4h-a8U6-AIxHLR94Puu">
    <mxGraphModel dx="2202" dy="575" grid="1" gridSize="10" guides="1" tooltips="1" connect="1" arrows="1" fold="1" page="1" pageScale="1" pageWidth="827" pageHeight="1169" math="0" shadow="0">
      <root>
        <mxCell id="0" />
        <mxCell id="1" parent="0" />
        <mxCell id="kBZHBOI9KrkaNfZJPFoU-10" style="edgeStyle=orthogonalEdgeStyle;rounded=0;orthogonalLoop=1;jettySize=auto;html=1;exitX=1;exitY=0;exitDx=0;exitDy=0;entryX=0.5;entryY=0;entryDx=0;entryDy=0;" edge="1" parent="1" source="kBZHBOI9KrkaNfZJPFoU-1" target="kBZHBOI9KrkaNfZJPFoU-2">
          <mxGeometry relative="1" as="geometry" />
        </mxCell>
        <mxCell id="kBZHBOI9KrkaNfZJPFoU-11" style="edgeStyle=orthogonalEdgeStyle;rounded=0;orthogonalLoop=1;jettySize=auto;html=1;exitX=1;exitY=0.5;exitDx=0;exitDy=0;entryX=0.5;entryY=0;entryDx=0;entryDy=0;" edge="1" parent="1" source="kBZHBOI9KrkaNfZJPFoU-1" target="kBZHBOI9KrkaNfZJPFoU-5">
          <mxGeometry relative="1" as="geometry" />
        </mxCell>
        <mxCell id="kBZHBOI9KrkaNfZJPFoU-13" style="edgeStyle=orthogonalEdgeStyle;rounded=0;orthogonalLoop=1;jettySize=auto;html=1;exitX=0;exitY=0.5;exitDx=0;exitDy=0;entryX=0.5;entryY=0;entryDx=0;entryDy=0;" edge="1" parent="1" source="kBZHBOI9KrkaNfZJPFoU-1" target="kBZHBOI9KrkaNfZJPFoU-12">
          <mxGeometry relative="1" as="geometry" />
        </mxCell>
        <mxCell id="kBZHBOI9KrkaNfZJPFoU-17" style="edgeStyle=orthogonalEdgeStyle;rounded=0;orthogonalLoop=1;jettySize=auto;html=1;exitX=1;exitY=1;exitDx=0;exitDy=0;entryX=0.5;entryY=0;entryDx=0;entryDy=0;" edge="1" parent="1" source="kBZHBOI9KrkaNfZJPFoU-1" target="kBZHBOI9KrkaNfZJPFoU-16">
          <mxGeometry relative="1" as="geometry">
            <Array as="points">
              <mxPoint x="451" y="190" />
            </Array>
          </mxGeometry>
        </mxCell>
        <mxCell id="kBZHBOI9KrkaNfZJPFoU-19" style="edgeStyle=orthogonalEdgeStyle;rounded=0;orthogonalLoop=1;jettySize=auto;html=1;exitX=0.5;exitY=1;exitDx=0;exitDy=0;entryX=0.5;entryY=0;entryDx=0;entryDy=0;" edge="1" parent="1" source="kBZHBOI9KrkaNfZJPFoU-1" target="kBZHBOI9KrkaNfZJPFoU-18">
          <mxGeometry relative="1" as="geometry" />
        </mxCell>
        <mxCell id="kBZHBOI9KrkaNfZJPFoU-45" style="edgeStyle=orthogonalEdgeStyle;rounded=0;orthogonalLoop=1;jettySize=auto;html=1;exitX=0;exitY=0;exitDx=0;exitDy=0;entryX=1;entryY=0.5;entryDx=0;entryDy=0;" edge="1" parent="1" source="kBZHBOI9KrkaNfZJPFoU-1" target="kBZHBOI9KrkaNfZJPFoU-7">
          <mxGeometry relative="1" as="geometry" />
        </mxCell>
        <mxCell id="kBZHBOI9KrkaNfZJPFoU-47" style="edgeStyle=orthogonalEdgeStyle;rounded=0;orthogonalLoop=1;jettySize=auto;html=1;exitX=0;exitY=1;exitDx=0;exitDy=0;entryX=1;entryY=0.5;entryDx=0;entryDy=0;" edge="1" parent="1" source="kBZHBOI9KrkaNfZJPFoU-1" target="kBZHBOI9KrkaNfZJPFoU-14">
          <mxGeometry relative="1" as="geometry" />
        </mxCell>
        <mxCell id="kBZHBOI9KrkaNfZJPFoU-1" value="&lt;div&gt;Основное меню&lt;/div&gt;" style="ellipse;whiteSpace=wrap;html=1;" vertex="1" parent="1">
          <mxGeometry x="331" y="93" width="140" height="70" as="geometry" />
        </mxCell>
        <mxCell id="kBZHBOI9KrkaNfZJPFoU-27" style="edgeStyle=orthogonalEdgeStyle;rounded=0;orthogonalLoop=1;jettySize=auto;html=1;exitX=1;exitY=0.5;exitDx=0;exitDy=0;entryX=1;entryY=0.5;entryDx=0;entryDy=0;" edge="1" parent="1" source="kBZHBOI9KrkaNfZJPFoU-2" target="kBZHBOI9KrkaNfZJPFoU-26">
          <mxGeometry relative="1" as="geometry" />
        </mxCell>
        <mxCell id="kBZHBOI9KrkaNfZJPFoU-2" value="Выход из программы&lt;div&gt;&lt;br&gt;&lt;/div&gt;" style="ellipse;whiteSpace=wrap;html=1;" vertex="1" parent="1">
          <mxGeometry x="651" y="183" width="140" height="70" as="geometry" />
        </mxCell>
        <mxCell id="kBZHBOI9KrkaNfZJPFoU-30" style="edgeStyle=orthogonalEdgeStyle;rounded=0;orthogonalLoop=1;jettySize=auto;html=1;exitX=0;exitY=0;exitDx=0;exitDy=0;entryX=1;entryY=0.5;entryDx=0;entryDy=0;" edge="1" parent="1" source="kBZHBOI9KrkaNfZJPFoU-5" target="kBZHBOI9KrkaNfZJPFoU-20">
          <mxGeometry relative="1" as="geometry">
            <Array as="points">
              <mxPoint x="581" y="35" />
            </Array>
          </mxGeometry>
        </mxCell>
        <mxCell id="kBZHBOI9KrkaNfZJPFoU-5" value="Выбор другого банка&lt;div&gt;&amp;nbsp;&lt;/div&gt;" style="ellipse;whiteSpace=wrap;html=1;" vertex="1" parent="1">
          <mxGeometry x="560" y="253" width="140" height="70" as="geometry" />
        </mxCell>
        <mxCell id="kBZHBOI9KrkaNfZJPFoU-46" style="edgeStyle=orthogonalEdgeStyle;rounded=0;orthogonalLoop=1;jettySize=auto;html=1;exitX=1;exitY=0.5;exitDx=0;exitDy=0;entryX=0;entryY=0;entryDx=0;entryDy=0;" edge="1" parent="1" source="kBZHBOI9KrkaNfZJPFoU-7" target="kBZHBOI9KrkaNfZJPFoU-1">
          <mxGeometry relative="1" as="geometry" />
        </mxCell>
        <mxCell id="kBZHBOI9KrkaNfZJPFoU-7" value="Регистрация" style="ellipse;whiteSpace=wrap;html=1;" vertex="1" parent="1">
          <mxGeometry x="10" y="80" width="140" height="70" as="geometry" />
        </mxCell>
        <mxCell id="kBZHBOI9KrkaNfZJPFoU-40" style="edgeStyle=orthogonalEdgeStyle;rounded=0;orthogonalLoop=1;jettySize=auto;html=1;exitX=0;exitY=0.5;exitDx=0;exitDy=0;entryX=0.5;entryY=0;entryDx=0;entryDy=0;" edge="1" parent="1" source="kBZHBOI9KrkaNfZJPFoU-12" target="kBZHBOI9KrkaNfZJPFoU-35">
          <mxGeometry relative="1" as="geometry">
            <Array as="points">
              <mxPoint x="170" y="358" />
              <mxPoint x="170" y="480" />
            </Array>
          </mxGeometry>
        </mxCell>
        <mxCell id="kBZHBOI9KrkaNfZJPFoU-41" style="edgeStyle=orthogonalEdgeStyle;rounded=0;orthogonalLoop=1;jettySize=auto;html=1;exitX=0;exitY=1;exitDx=0;exitDy=0;entryX=0.5;entryY=0;entryDx=0;entryDy=0;" edge="1" parent="1" source="kBZHBOI9KrkaNfZJPFoU-12" target="kBZHBOI9KrkaNfZJPFoU-36">
          <mxGeometry relative="1" as="geometry">
            <Array as="points">
              <mxPoint x="251" y="440" />
              <mxPoint x="410" y="440" />
              <mxPoint x="410" y="530" />
            </Array>
          </mxGeometry>
        </mxCell>
        <mxCell id="kBZHBOI9KrkaNfZJPFoU-42" style="edgeStyle=orthogonalEdgeStyle;rounded=0;orthogonalLoop=1;jettySize=auto;html=1;exitX=0.5;exitY=1;exitDx=0;exitDy=0;entryX=0.5;entryY=0;entryDx=0;entryDy=0;" edge="1" parent="1" source="kBZHBOI9KrkaNfZJPFoU-12" target="kBZHBOI9KrkaNfZJPFoU-37">
          <mxGeometry relative="1" as="geometry">
            <Array as="points">
              <mxPoint x="290" y="410" />
              <mxPoint x="800" y="410" />
            </Array>
          </mxGeometry>
        </mxCell>
        <mxCell id="kBZHBOI9KrkaNfZJPFoU-43" style="edgeStyle=orthogonalEdgeStyle;rounded=0;orthogonalLoop=1;jettySize=auto;html=1;exitX=1;exitY=1;exitDx=0;exitDy=0;entryX=0.5;entryY=0;entryDx=0;entryDy=0;" edge="1" parent="1" source="kBZHBOI9KrkaNfZJPFoU-12" target="kBZHBOI9KrkaNfZJPFoU-38">
          <mxGeometry relative="1" as="geometry" />
        </mxCell>
        <mxCell id="kBZHBOI9KrkaNfZJPFoU-99" style="edgeStyle=orthogonalEdgeStyle;rounded=0;orthogonalLoop=1;jettySize=auto;html=1;exitX=1;exitY=0.5;exitDx=0;exitDy=0;entryX=0.5;entryY=1;entryDx=0;entryDy=0;" edge="1" parent="1" source="kBZHBOI9KrkaNfZJPFoU-12" target="kBZHBOI9KrkaNfZJPFoU-39">
          <mxGeometry relative="1" as="geometry" />
        </mxCell>
        <mxCell id="kBZHBOI9KrkaNfZJPFoU-12" value="Вход" style="ellipse;whiteSpace=wrap;html=1;" vertex="1" parent="1">
          <mxGeometry x="230" y="342" width="140" height="70" as="geometry" />
        </mxCell>
        <mxCell id="kBZHBOI9KrkaNfZJPFoU-48" style="edgeStyle=orthogonalEdgeStyle;rounded=0;orthogonalLoop=1;jettySize=auto;html=1;exitX=1;exitY=0.5;exitDx=0;exitDy=0;entryX=0;entryY=1;entryDx=0;entryDy=0;" edge="1" parent="1" source="kBZHBOI9KrkaNfZJPFoU-14" target="kBZHBOI9KrkaNfZJPFoU-1">
          <mxGeometry relative="1" as="geometry" />
        </mxCell>
        <mxCell id="kBZHBOI9KrkaNfZJPFoU-14" value="Выход" style="ellipse;whiteSpace=wrap;html=1;" vertex="1" parent="1">
          <mxGeometry x="130" y="140" width="140" height="70" as="geometry" />
        </mxCell>
        <mxCell id="kBZHBOI9KrkaNfZJPFoU-31" style="edgeStyle=orthogonalEdgeStyle;rounded=0;orthogonalLoop=1;jettySize=auto;html=1;exitX=0.5;exitY=0;exitDx=0;exitDy=0;entryX=1;entryY=1;entryDx=0;entryDy=0;" edge="1" parent="1" source="kBZHBOI9KrkaNfZJPFoU-16" target="kBZHBOI9KrkaNfZJPFoU-1">
          <mxGeometry relative="1" as="geometry">
            <Array as="points">
              <mxPoint x="451" y="190" />
            </Array>
          </mxGeometry>
        </mxCell>
        <mxCell id="kBZHBOI9KrkaNfZJPFoU-16" value="Показ текущего пользователя" style="ellipse;whiteSpace=wrap;html=1;" vertex="1" parent="1">
          <mxGeometry x="440" y="190" width="140" height="70" as="geometry" />
        </mxCell>
        <mxCell id="kBZHBOI9KrkaNfZJPFoU-23" style="edgeStyle=orthogonalEdgeStyle;rounded=0;orthogonalLoop=1;jettySize=auto;html=1;exitX=0.5;exitY=0;exitDx=0;exitDy=0;entryX=0.5;entryY=1;entryDx=0;entryDy=0;" edge="1" parent="1" source="kBZHBOI9KrkaNfZJPFoU-18" target="kBZHBOI9KrkaNfZJPFoU-1">
          <mxGeometry relative="1" as="geometry" />
        </mxCell>
        <mxCell id="kBZHBOI9KrkaNfZJPFoU-18" value="Вывод всех пользователей" style="ellipse;whiteSpace=wrap;html=1;" vertex="1" parent="1">
          <mxGeometry x="331" y="230" width="140" height="70" as="geometry" />
        </mxCell>
        <mxCell id="kBZHBOI9KrkaNfZJPFoU-21" style="edgeStyle=orthogonalEdgeStyle;rounded=0;orthogonalLoop=1;jettySize=auto;html=1;exitX=0.5;exitY=1;exitDx=0;exitDy=0;entryX=0.5;entryY=0;entryDx=0;entryDy=0;" edge="1" parent="1" source="kBZHBOI9KrkaNfZJPFoU-20" target="kBZHBOI9KrkaNfZJPFoU-1">
          <mxGeometry relative="1" as="geometry" />
        </mxCell>
        <mxCell id="kBZHBOI9KrkaNfZJPFoU-20" value="Выбор банка" style="ellipse;whiteSpace=wrap;html=1;" vertex="1" parent="1">
          <mxGeometry x="334" width="140" height="70" as="geometry" />
        </mxCell>
        <mxCell id="kBZHBOI9KrkaNfZJPFoU-22" style="edgeStyle=orthogonalEdgeStyle;rounded=0;orthogonalLoop=1;jettySize=auto;html=1;exitX=0.5;exitY=1;exitDx=0;exitDy=0;" edge="1" parent="1" source="kBZHBOI9KrkaNfZJPFoU-18" target="kBZHBOI9KrkaNfZJPFoU-18">
          <mxGeometry relative="1" as="geometry" />
        </mxCell>
        <mxCell id="kBZHBOI9KrkaNfZJPFoU-29" style="edgeStyle=orthogonalEdgeStyle;rounded=0;orthogonalLoop=1;jettySize=auto;html=1;exitX=1;exitY=0.5;exitDx=0;exitDy=0;entryX=0;entryY=0.5;entryDx=0;entryDy=0;" edge="1" parent="1" source="kBZHBOI9KrkaNfZJPFoU-25" target="kBZHBOI9KrkaNfZJPFoU-20">
          <mxGeometry relative="1" as="geometry" />
        </mxCell>
        <mxCell id="kBZHBOI9KrkaNfZJPFoU-25" value="Начало" style="rounded=0;whiteSpace=wrap;html=1;" vertex="1" parent="1">
          <mxGeometry x="150" y="5" width="120" height="60" as="geometry" />
        </mxCell>
        <mxCell id="kBZHBOI9KrkaNfZJPFoU-26" value="Конец программы" style="rounded=0;whiteSpace=wrap;html=1;" vertex="1" parent="1">
          <mxGeometry x="681" y="33" width="120" height="60" as="geometry" />
        </mxCell>
        <mxCell id="kBZHBOI9KrkaNfZJPFoU-56" style="edgeStyle=orthogonalEdgeStyle;rounded=0;orthogonalLoop=1;jettySize=auto;html=1;exitX=0;exitY=0;exitDx=0;exitDy=0;entryX=0.5;entryY=1;entryDx=0;entryDy=0;" edge="1" parent="1" source="kBZHBOI9KrkaNfZJPFoU-35" target="kBZHBOI9KrkaNfZJPFoU-55">
          <mxGeometry relative="1" as="geometry" />
        </mxCell>
        <mxCell id="kBZHBOI9KrkaNfZJPFoU-57" style="edgeStyle=orthogonalEdgeStyle;rounded=0;orthogonalLoop=1;jettySize=auto;html=1;exitX=0;exitY=0.5;exitDx=0;exitDy=0;entryX=0;entryY=0.5;entryDx=0;entryDy=0;" edge="1" parent="1" source="kBZHBOI9KrkaNfZJPFoU-35" target="kBZHBOI9KrkaNfZJPFoU-49">
          <mxGeometry relative="1" as="geometry" />
        </mxCell>
        <mxCell id="kBZHBOI9KrkaNfZJPFoU-58" style="edgeStyle=orthogonalEdgeStyle;rounded=0;orthogonalLoop=1;jettySize=auto;html=1;exitX=0;exitY=1;exitDx=0;exitDy=0;entryX=0;entryY=0.5;entryDx=0;entryDy=0;" edge="1" parent="1" source="kBZHBOI9KrkaNfZJPFoU-35" target="kBZHBOI9KrkaNfZJPFoU-50">
          <mxGeometry relative="1" as="geometry">
            <Array as="points">
              <mxPoint x="-30" y="548" />
              <mxPoint x="-30" y="720" />
            </Array>
          </mxGeometry>
        </mxCell>
        <mxCell id="kBZHBOI9KrkaNfZJPFoU-59" style="edgeStyle=orthogonalEdgeStyle;rounded=0;orthogonalLoop=1;jettySize=auto;html=1;exitX=0.5;exitY=1;exitDx=0;exitDy=0;entryX=0;entryY=0.5;entryDx=0;entryDy=0;" edge="1" parent="1" source="kBZHBOI9KrkaNfZJPFoU-35" target="kBZHBOI9KrkaNfZJPFoU-53">
          <mxGeometry relative="1" as="geometry">
            <Array as="points">
              <mxPoint x="-50" y="560" />
              <mxPoint x="-50" y="810" />
            </Array>
          </mxGeometry>
        </mxCell>
        <mxCell id="kBZHBOI9KrkaNfZJPFoU-60" style="edgeStyle=orthogonalEdgeStyle;rounded=0;orthogonalLoop=1;jettySize=auto;html=1;exitX=1;exitY=0;exitDx=0;exitDy=0;entryX=1;entryY=0.5;entryDx=0;entryDy=0;" edge="1" parent="1" source="kBZHBOI9KrkaNfZJPFoU-35" target="kBZHBOI9KrkaNfZJPFoU-51">
          <mxGeometry relative="1" as="geometry">
            <Array as="points">
              <mxPoint x="143" y="565" />
              <mxPoint x="290" y="565" />
              <mxPoint x="290" y="625" />
            </Array>
          </mxGeometry>
        </mxCell>
        <mxCell id="kBZHBOI9KrkaNfZJPFoU-64" style="edgeStyle=orthogonalEdgeStyle;rounded=0;orthogonalLoop=1;jettySize=auto;html=1;exitX=1;exitY=0.5;exitDx=0;exitDy=0;entryX=1;entryY=0.5;entryDx=0;entryDy=0;" edge="1" parent="1" source="kBZHBOI9KrkaNfZJPFoU-35" target="kBZHBOI9KrkaNfZJPFoU-52">
          <mxGeometry relative="1" as="geometry">
            <Array as="points">
              <mxPoint x="300" y="520" />
              <mxPoint x="300" y="720" />
            </Array>
          </mxGeometry>
        </mxCell>
        <mxCell id="kBZHBOI9KrkaNfZJPFoU-65" style="edgeStyle=orthogonalEdgeStyle;rounded=0;orthogonalLoop=1;jettySize=auto;html=1;exitX=1;exitY=0;exitDx=0;exitDy=0;entryX=1;entryY=0.5;entryDx=0;entryDy=0;" edge="1" parent="1" source="kBZHBOI9KrkaNfZJPFoU-35" target="kBZHBOI9KrkaNfZJPFoU-54">
          <mxGeometry relative="1" as="geometry">
            <Array as="points">
              <mxPoint x="310" y="492" />
              <mxPoint x="310" y="810" />
            </Array>
          </mxGeometry>
        </mxCell>
        <mxCell id="kBZHBOI9KrkaNfZJPFoU-35" value="Клиент" style="ellipse;whiteSpace=wrap;html=1;" vertex="1" parent="1">
          <mxGeometry x="41" y="480" width="120" height="80" as="geometry" />
        </mxCell>
        <mxCell id="kBZHBOI9KrkaNfZJPFoU-71" style="edgeStyle=orthogonalEdgeStyle;rounded=0;orthogonalLoop=1;jettySize=auto;html=1;exitX=1;exitY=0;exitDx=0;exitDy=0;entryX=0;entryY=1;entryDx=0;entryDy=0;" edge="1" parent="1" source="kBZHBOI9KrkaNfZJPFoU-36" target="kBZHBOI9KrkaNfZJPFoU-70">
          <mxGeometry relative="1" as="geometry" />
        </mxCell>
        <mxCell id="kBZHBOI9KrkaNfZJPFoU-73" style="edgeStyle=orthogonalEdgeStyle;rounded=0;orthogonalLoop=1;jettySize=auto;html=1;exitX=1;exitY=0.5;exitDx=0;exitDy=0;entryX=0;entryY=0.5;entryDx=0;entryDy=0;" edge="1" parent="1" source="kBZHBOI9KrkaNfZJPFoU-36" target="kBZHBOI9KrkaNfZJPFoU-67">
          <mxGeometry relative="1" as="geometry" />
        </mxCell>
        <mxCell id="kBZHBOI9KrkaNfZJPFoU-74" style="edgeStyle=orthogonalEdgeStyle;rounded=0;orthogonalLoop=1;jettySize=auto;html=1;exitX=1;exitY=1;exitDx=0;exitDy=0;entryX=0;entryY=0.5;entryDx=0;entryDy=0;" edge="1" parent="1" source="kBZHBOI9KrkaNfZJPFoU-36" target="kBZHBOI9KrkaNfZJPFoU-68">
          <mxGeometry relative="1" as="geometry">
            <Array as="points">
              <mxPoint x="456" y="728" />
            </Array>
          </mxGeometry>
        </mxCell>
        <mxCell id="kBZHBOI9KrkaNfZJPFoU-75" style="edgeStyle=orthogonalEdgeStyle;rounded=0;orthogonalLoop=1;jettySize=auto;html=1;exitX=0.5;exitY=1;exitDx=0;exitDy=0;entryX=0;entryY=0.5;entryDx=0;entryDy=0;" edge="1" parent="1" source="kBZHBOI9KrkaNfZJPFoU-36" target="kBZHBOI9KrkaNfZJPFoU-69">
          <mxGeometry relative="1" as="geometry" />
        </mxCell>
        <mxCell id="kBZHBOI9KrkaNfZJPFoU-36" value="Оператор" style="ellipse;whiteSpace=wrap;html=1;" vertex="1" parent="1">
          <mxGeometry x="354" y="530" width="120" height="80" as="geometry" />
        </mxCell>
        <mxCell id="kBZHBOI9KrkaNfZJPFoU-80" style="edgeStyle=orthogonalEdgeStyle;rounded=0;orthogonalLoop=1;jettySize=auto;html=1;exitX=1;exitY=0;exitDx=0;exitDy=0;entryX=0.5;entryY=1;entryDx=0;entryDy=0;" edge="1" parent="1" source="kBZHBOI9KrkaNfZJPFoU-37" target="kBZHBOI9KrkaNfZJPFoU-76">
          <mxGeometry relative="1" as="geometry" />
        </mxCell>
        <mxCell id="kBZHBOI9KrkaNfZJPFoU-84" style="edgeStyle=orthogonalEdgeStyle;rounded=0;orthogonalLoop=1;jettySize=auto;html=1;exitX=1;exitY=0.5;exitDx=0;exitDy=0;entryX=0;entryY=0.5;entryDx=0;entryDy=0;" edge="1" parent="1" source="kBZHBOI9KrkaNfZJPFoU-37" target="kBZHBOI9KrkaNfZJPFoU-81">
          <mxGeometry relative="1" as="geometry" />
        </mxCell>
        <mxCell id="kBZHBOI9KrkaNfZJPFoU-85" style="edgeStyle=orthogonalEdgeStyle;rounded=0;orthogonalLoop=1;jettySize=auto;html=1;exitX=1;exitY=1;exitDx=0;exitDy=0;entryX=0;entryY=0.5;entryDx=0;entryDy=0;" edge="1" parent="1" source="kBZHBOI9KrkaNfZJPFoU-37" target="kBZHBOI9KrkaNfZJPFoU-83">
          <mxGeometry relative="1" as="geometry">
            <Array as="points">
              <mxPoint x="722" y="614" />
              <mxPoint x="723" y="718" />
            </Array>
          </mxGeometry>
        </mxCell>
        <mxCell id="kBZHBOI9KrkaNfZJPFoU-86" style="edgeStyle=orthogonalEdgeStyle;rounded=0;orthogonalLoop=1;jettySize=auto;html=1;exitX=0.5;exitY=1;exitDx=0;exitDy=0;entryX=0;entryY=0.5;entryDx=0;entryDy=0;" edge="1" parent="1" source="kBZHBOI9KrkaNfZJPFoU-37" target="kBZHBOI9KrkaNfZJPFoU-82">
          <mxGeometry relative="1" as="geometry" />
        </mxCell>
        <mxCell id="kBZHBOI9KrkaNfZJPFoU-37" value="Менеджер" style="ellipse;whiteSpace=wrap;html=1;" vertex="1" parent="1">
          <mxGeometry x="620" y="470" width="120" height="80" as="geometry" />
        </mxCell>
        <mxCell id="kBZHBOI9KrkaNfZJPFoU-92" style="edgeStyle=orthogonalEdgeStyle;rounded=0;orthogonalLoop=1;jettySize=auto;html=1;exitX=1;exitY=0;exitDx=0;exitDy=0;entryX=1;entryY=0.5;entryDx=0;entryDy=0;" edge="1" parent="1" source="kBZHBOI9KrkaNfZJPFoU-38" target="kBZHBOI9KrkaNfZJPFoU-87">
          <mxGeometry relative="1" as="geometry" />
        </mxCell>
        <mxCell id="kBZHBOI9KrkaNfZJPFoU-95" style="edgeStyle=orthogonalEdgeStyle;rounded=0;orthogonalLoop=1;jettySize=auto;html=1;exitX=1;exitY=0.5;exitDx=0;exitDy=0;entryX=0;entryY=0.5;entryDx=0;entryDy=0;" edge="1" parent="1" source="kBZHBOI9KrkaNfZJPFoU-38" target="kBZHBOI9KrkaNfZJPFoU-91">
          <mxGeometry relative="1" as="geometry" />
        </mxCell>
        <mxCell id="kBZHBOI9KrkaNfZJPFoU-96" style="edgeStyle=orthogonalEdgeStyle;rounded=0;orthogonalLoop=1;jettySize=auto;html=1;exitX=1;exitY=1;exitDx=0;exitDy=0;entryX=0;entryY=0.5;entryDx=0;entryDy=0;" edge="1" parent="1" source="kBZHBOI9KrkaNfZJPFoU-38" target="kBZHBOI9KrkaNfZJPFoU-90">
          <mxGeometry relative="1" as="geometry">
            <Array as="points">
              <mxPoint x="999" y="600" />
            </Array>
          </mxGeometry>
        </mxCell>
        <mxCell id="kBZHBOI9KrkaNfZJPFoU-97" style="edgeStyle=orthogonalEdgeStyle;rounded=0;orthogonalLoop=1;jettySize=auto;html=1;exitX=0.5;exitY=1;exitDx=0;exitDy=0;entryX=0;entryY=0.5;entryDx=0;entryDy=0;" edge="1" parent="1" source="kBZHBOI9KrkaNfZJPFoU-38" target="kBZHBOI9KrkaNfZJPFoU-89">
          <mxGeometry relative="1" as="geometry" />
        </mxCell>
        <mxCell id="kBZHBOI9KrkaNfZJPFoU-98" style="edgeStyle=orthogonalEdgeStyle;rounded=0;orthogonalLoop=1;jettySize=auto;html=1;exitX=0;exitY=1;exitDx=0;exitDy=0;entryX=0;entryY=0.5;entryDx=0;entryDy=0;" edge="1" parent="1" source="kBZHBOI9KrkaNfZJPFoU-38" target="kBZHBOI9KrkaNfZJPFoU-88">
          <mxGeometry relative="1" as="geometry">
            <Array as="points">
              <mxPoint x="915" y="780" />
            </Array>
          </mxGeometry>
        </mxCell>
        <mxCell id="kBZHBOI9KrkaNfZJPFoU-38" value="Специалист" style="ellipse;whiteSpace=wrap;html=1;" vertex="1" parent="1">
          <mxGeometry x="897" y="422" width="120" height="80" as="geometry" />
        </mxCell>
        <mxCell id="kBZHBOI9KrkaNfZJPFoU-39" value="Администратор" style="ellipse;whiteSpace=wrap;html=1;" vertex="1" parent="1">
          <mxGeometry x="1010" y="185" width="120" height="80" as="geometry" />
        </mxCell>
        <mxCell id="kBZHBOI9KrkaNfZJPFoU-49" value="Просмотр&lt;div&gt;счетов&lt;/div&gt;" style="ellipse;whiteSpace=wrap;html=1;" vertex="1" parent="1">
          <mxGeometry x="10" y="585" width="120" height="80" as="geometry" />
        </mxCell>
        <mxCell id="kBZHBOI9KrkaNfZJPFoU-50" value="Перевод средств" style="ellipse;whiteSpace=wrap;html=1;" vertex="1" parent="1">
          <mxGeometry x="10" y="680" width="120" height="80" as="geometry" />
        </mxCell>
        <mxCell id="kBZHBOI9KrkaNfZJPFoU-51" value="Заявка на кредит&lt;span style=&quot;color: rgba(0, 0, 0, 0); font-family: monospace; font-size: 0px; text-align: start; text-wrap-mode: nowrap;&quot;&gt;%3CmxGraphModel%3E%3Croot%3E%3CmxCell%20id%3D%220%22%2F%3E%3CmxCell%20id%3D%221%22%20parent%3D%220%22%2F%3E%3CmxCell%20id%3D%222%22%20value%3D%22%D0%9F%D1%80%D0%BE%D1%81%D0%BC%D0%BE%D1%82%D1%80%26lt%3Bdiv%26gt%3B%D1%81%D1%87%D0%B5%D1%82%D0%BE%D0%B2%26lt%3B%2Fdiv%26gt%3B%22%20style%3D%22ellipse%3BwhiteSpace%3Dwrap%3Bhtml%3D1%3B%22%20vertex%3D%221%22%20parent%3D%221%22%3E%3CmxGeometry%20x%3D%2210%22%20y%3D%22680%22%20width%3D%22120%22%20height%3D%2280%22%20as%3D%22geometry%22%2F%3E%3C%2FmxCell%3E%3C%2Froot%3E%3C%2FmxGraphModel%3E&lt;/span&gt;&lt;span style=&quot;color: rgba(0, 0, 0, 0); font-family: monospace; font-size: 0px; text-align: start; text-wrap-mode: nowrap;&quot;&gt;%3CmxGraphModel%3E%3Croot%3E%3CmxCell%20id%3D%220%22%2F%3E%3CmxCell%20id%3D%221%22%20parent%3D%220%22%2F%3E%3CmxCell%20id%3D%222%22%20value%3D%22%D0%9F%D1%80%D0%BE%D1%81%D0%BC%D0%BE%D1%82%D1%80%26lt%3Bdiv%26gt%3B%D1%81%D1%87%D0%B5%D1%82%D0%BE%D0%B2%26lt%3B%2Fdiv%26gt%3B%22%20style%3D%22ellipse%3BwhiteSpace%3Dwrap%3Bhtml%3D1%3B%22%20vertex%3D%221%22%20parent%3D%221%22%3E%3CmxGeometry%20x%3D%2210%22%20y%3D%22680%22%20width%3D%22120%22%20height%3D%2280%22%20as%3D%22geometry%22%2F%3E%3C%2FmxCell%3E%3C%2Froot%3E%3C%2FmxGraphModel%3E&lt;/span&gt;" style="ellipse;whiteSpace=wrap;html=1;" vertex="1" parent="1">
          <mxGeometry x="150" y="585" width="120" height="80" as="geometry" />
        </mxCell>
        <mxCell id="kBZHBOI9KrkaNfZJPFoU-52" value="Погашение кредита" style="ellipse;whiteSpace=wrap;html=1;" vertex="1" parent="1">
          <mxGeometry x="150" y="680" width="120" height="80" as="geometry" />
        </mxCell>
        <mxCell id="kBZHBOI9KrkaNfZJPFoU-53" value="Снятие денег со счета" style="ellipse;whiteSpace=wrap;html=1;" vertex="1" parent="1">
          <mxGeometry x="10" y="770" width="120" height="80" as="geometry" />
        </mxCell>
        <mxCell id="kBZHBOI9KrkaNfZJPFoU-54" value="Блокировка счета" style="ellipse;whiteSpace=wrap;html=1;" vertex="1" parent="1">
          <mxGeometry x="150" y="770" width="120" height="80" as="geometry" />
        </mxCell>
        <mxCell id="kBZHBOI9KrkaNfZJPFoU-66" style="edgeStyle=orthogonalEdgeStyle;rounded=0;orthogonalLoop=1;jettySize=auto;html=1;exitX=0.5;exitY=0;exitDx=0;exitDy=0;entryX=0;entryY=1;entryDx=0;entryDy=0;" edge="1" parent="1" source="kBZHBOI9KrkaNfZJPFoU-55" target="kBZHBOI9KrkaNfZJPFoU-1">
          <mxGeometry relative="1" as="geometry">
            <Array as="points">
              <mxPoint x="59" y="230" />
              <mxPoint x="352" y="230" />
            </Array>
          </mxGeometry>
        </mxCell>
        <mxCell id="kBZHBOI9KrkaNfZJPFoU-55" value="Выход" style="ellipse;whiteSpace=wrap;html=1;" vertex="1" parent="1">
          <mxGeometry x="-1" y="342" width="120" height="80" as="geometry" />
        </mxCell>
        <mxCell id="kBZHBOI9KrkaNfZJPFoU-67" value="Просмотр статистики по счету" style="ellipse;whiteSpace=wrap;html=1;" vertex="1" parent="1">
          <mxGeometry x="519" y="598" width="120" height="80" as="geometry" />
        </mxCell>
        <mxCell id="kBZHBOI9KrkaNfZJPFoU-68" value="Отмена операции&lt;span style=&quot;color: rgba(0, 0, 0, 0); font-family: monospace; font-size: 0px; text-align: start; text-wrap-mode: nowrap;&quot;&gt;%3CmxGraphModel%3E%3Croot%3E%3CmxCell%20id%3D%220%22%2F%3E%3CmxCell%20id%3D%221%22%20parent%3D%220%22%2F%3E%3CmxCell%20id%3D%222%22%20value%3D%22%D0%9F%D1%80%D0%BE%D1%81%D0%BC%D0%BE%D1%82%D1%80%20%D1%81%D1%82%D0%B0%D1%82%D0%B8%D1%81%D1%82%D0%B8%D0%BA%D0%B8%20%D0%BF%D0%BE%20%D1%81%D1%87%D0%B5%D1%82%D1%83%22%20style%3D%22ellipse%3BwhiteSpace%3Dwrap%3Bhtml%3D1%3B%22%20vertex%3D%221%22%20parent%3D%221%22%3E%3CmxGeometry%20x%3D%22370%22%20y%3D%22760%22%20width%3D%22120%22%20height%3D%2280%22%20as%3D%22geometry%22%2F%3E%3C%2FmxCell%3E%3C%2Froot%3E%3C%2FmxGraphModel%3E&lt;/span&gt;" style="ellipse;whiteSpace=wrap;html=1;" vertex="1" parent="1">
          <mxGeometry x="519" y="688" width="120" height="80" as="geometry" />
        </mxCell>
        <mxCell id="kBZHBOI9KrkaNfZJPFoU-69" value="Подтверждение&amp;nbsp;&lt;div&gt;зарплатного&lt;/div&gt;&lt;div&gt;проекта&lt;/div&gt;" style="ellipse;whiteSpace=wrap;html=1;" vertex="1" parent="1">
          <mxGeometry x="519" y="778" width="120" height="80" as="geometry" />
        </mxCell>
        <mxCell id="kBZHBOI9KrkaNfZJPFoU-72" style="edgeStyle=orthogonalEdgeStyle;rounded=0;orthogonalLoop=1;jettySize=auto;html=1;exitX=0.5;exitY=0;exitDx=0;exitDy=0;" edge="1" parent="1" source="kBZHBOI9KrkaNfZJPFoU-70">
          <mxGeometry relative="1" as="geometry">
            <mxPoint x="350" y="160" as="targetPoint" />
            <Array as="points">
              <mxPoint x="500" y="330" />
              <mxPoint x="351" y="330" />
            </Array>
          </mxGeometry>
        </mxCell>
        <mxCell id="kBZHBOI9KrkaNfZJPFoU-70" value="Выход" style="ellipse;whiteSpace=wrap;html=1;" vertex="1" parent="1">
          <mxGeometry x="440" y="440" width="120" height="80" as="geometry" />
        </mxCell>
        <mxCell id="kBZHBOI9KrkaNfZJPFoU-79" style="edgeStyle=orthogonalEdgeStyle;rounded=0;orthogonalLoop=1;jettySize=auto;html=1;exitX=0;exitY=0.5;exitDx=0;exitDy=0;entryX=0;entryY=1;entryDx=0;entryDy=0;" edge="1" parent="1" source="kBZHBOI9KrkaNfZJPFoU-76" target="kBZHBOI9KrkaNfZJPFoU-1">
          <mxGeometry relative="1" as="geometry" />
        </mxCell>
        <mxCell id="kBZHBOI9KrkaNfZJPFoU-81" value="Подтвердить&amp;nbsp;&lt;div&gt;кредит&lt;/div&gt;" style="ellipse;whiteSpace=wrap;html=1;" vertex="1" parent="1">
          <mxGeometry x="782" y="570" width="120" height="80" as="geometry" />
        </mxCell>
        <mxCell id="kBZHBOI9KrkaNfZJPFoU-82" value="Отмена операций&lt;div&gt;специалиста&lt;/div&gt;" style="ellipse;whiteSpace=wrap;html=1;" vertex="1" parent="1">
          <mxGeometry x="782" y="750" width="120" height="80" as="geometry" />
        </mxCell>
        <mxCell id="kBZHBOI9KrkaNfZJPFoU-83" value="Подтвердить зарплатный&lt;div&gt;проект&lt;/div&gt;" style="ellipse;whiteSpace=wrap;html=1;" vertex="1" parent="1">
          <mxGeometry x="782" y="660" width="120" height="80" as="geometry" />
        </mxCell>
        <mxCell id="kBZHBOI9KrkaNfZJPFoU-93" style="edgeStyle=orthogonalEdgeStyle;rounded=0;orthogonalLoop=1;jettySize=auto;html=1;exitX=0;exitY=0.5;exitDx=0;exitDy=0;entryX=0;entryY=1;entryDx=0;entryDy=0;" edge="1" parent="1" source="kBZHBOI9KrkaNfZJPFoU-76" target="kBZHBOI9KrkaNfZJPFoU-1">
          <mxGeometry relative="1" as="geometry">
            <Array as="points" />
          </mxGeometry>
        </mxCell>
        <mxCell id="kBZHBOI9KrkaNfZJPFoU-87" value="Выход" style="ellipse;whiteSpace=wrap;html=1;" vertex="1" parent="1">
          <mxGeometry x="833" y="290" width="120" height="80" as="geometry" />
        </mxCell>
        <mxCell id="kBZHBOI9KrkaNfZJPFoU-88" value="Запрос на&amp;nbsp;&lt;div&gt;перевод средств&lt;/div&gt;" style="ellipse;whiteSpace=wrap;html=1;" vertex="1" parent="1">
          <mxGeometry x="1049" y="740" width="120" height="80" as="geometry" />
        </mxCell>
        <mxCell id="kBZHBOI9KrkaNfZJPFoU-89" value="Деактивировать&lt;div&gt;зарплатный&lt;/div&gt;&lt;div&gt;проект&lt;/div&gt;" style="ellipse;whiteSpace=wrap;html=1;" vertex="1" parent="1">
          <mxGeometry x="1049" y="650" width="120" height="80" as="geometry" />
        </mxCell>
        <mxCell id="kBZHBOI9KrkaNfZJPFoU-90" value="Просмотр зарплатных&amp;nbsp;&lt;div&gt;проектов&lt;/div&gt;" style="ellipse;whiteSpace=wrap;html=1;" vertex="1" parent="1">
          <mxGeometry x="1049" y="560" width="120" height="80" as="geometry" />
        </mxCell>
        <mxCell id="kBZHBOI9KrkaNfZJPFoU-91" value="Подать документы&lt;div&gt;на зарплатный&amp;nbsp;&lt;/div&gt;&lt;div&gt;проект&lt;/div&gt;" style="ellipse;whiteSpace=wrap;html=1;" vertex="1" parent="1">
          <mxGeometry x="1049" y="470" width="120" height="80" as="geometry" />
        </mxCell>
        <mxCell id="kBZHBOI9KrkaNfZJPFoU-94" value="" style="edgeStyle=orthogonalEdgeStyle;rounded=0;orthogonalLoop=1;jettySize=auto;html=1;exitX=0;exitY=0.5;exitDx=0;exitDy=0;entryX=0;entryY=1;entryDx=0;entryDy=0;" edge="1" parent="1" source="kBZHBOI9KrkaNfZJPFoU-87" target="kBZHBOI9KrkaNfZJPFoU-76">
          <mxGeometry relative="1" as="geometry">
            <mxPoint x="834" y="330" as="sourcePoint" />
            <mxPoint x="352" y="153" as="targetPoint" />
            <Array as="points">
              <mxPoint x="352" y="330" />
            </Array>
          </mxGeometry>
        </mxCell>
        <mxCell id="kBZHBOI9KrkaNfZJPFoU-76" value="Выход" style="ellipse;whiteSpace=wrap;html=1;" vertex="1" parent="1">
          <mxGeometry x="681" y="290" width="120" height="80" as="geometry" />
        </mxCell>
        <mxCell id="kBZHBOI9KrkaNfZJPFoU-100" value="Выход" style="ellipse;whiteSpace=wrap;html=1;" vertex="1" parent="1">
          <mxGeometry x="870" y="185" width="120" height="80" as="geometry" />
        </mxCell>
      </root>
    </mxGraphModel>
  </diagram>
</mxfile>
